<mxfile host="app.diagrams.net" agent="Mozilla/5.0 (Windows NT 10.0; Win64; x64) AppleWebKit/537.36 (KHTML, like Gecko) Chrome/133.0.0.0 Safari/537.36" version="26.1.0">
  <diagram name="Страница — 1" id="HU273nPp41cuXyJ5Ojlx">
    <mxGraphModel dx="5226" dy="1477" grid="1" gridSize="10" guides="1" tooltips="1" connect="1" arrows="1" fold="1" page="1" pageScale="1" pageWidth="827" pageHeight="1169" background="none" math="0" shadow="0">
      <root>
        <mxCell id="0" />
        <mxCell id="1" parent="0" />
        <mxCell id="Frtu5Afy2NNaTnQY8MFh-1" style="edgeStyle=orthogonalEdgeStyle;rounded=0;orthogonalLoop=1;jettySize=auto;html=1;entryX=0.5;entryY=0;entryDx=0;entryDy=0;" parent="1" source="Frtu5Afy2NNaTnQY8MFh-2" target="Frtu5Afy2NNaTnQY8MFh-3" edge="1">
          <mxGeometry relative="1" as="geometry" />
        </mxCell>
        <mxCell id="Frtu5Afy2NNaTnQY8MFh-2" value="Начало" style="ellipse;whiteSpace=wrap;html=1;" parent="1" vertex="1">
          <mxGeometry x="-1950.1399999999999" y="120" width="80" height="40" as="geometry" />
        </mxCell>
        <mxCell id="Frtu5Afy2NNaTnQY8MFh-32" style="edgeStyle=orthogonalEdgeStyle;rounded=0;orthogonalLoop=1;jettySize=auto;html=1;entryX=0.5;entryY=0;entryDx=0;entryDy=0;" parent="1" source="Frtu5Afy2NNaTnQY8MFh-3" target="Frtu5Afy2NNaTnQY8MFh-11" edge="1">
          <mxGeometry relative="1" as="geometry" />
        </mxCell>
        <mxCell id="Frtu5Afy2NNaTnQY8MFh-3" value="const int&amp;nbsp;&lt;span style=&quot;background-color: transparent; color: light-dark(rgb(0, 0, 0), rgb(255, 255, 255));&quot;&gt;size = 5;&lt;/span&gt;" style="rounded=0;whiteSpace=wrap;html=1;" parent="1" vertex="1">
          <mxGeometry x="-1960.2" y="210" width="99.8" height="30" as="geometry" />
        </mxCell>
        <mxCell id="Frtu5Afy2NNaTnQY8MFh-4" style="edgeStyle=orthogonalEdgeStyle;rounded=0;orthogonalLoop=1;jettySize=auto;html=1;dashed=1;endArrow=none;endFill=0;" parent="1" source="Frtu5Afy2NNaTnQY8MFh-5" edge="1">
          <mxGeometry relative="1" as="geometry">
            <mxPoint x="-1910.1399999999999" y="180" as="targetPoint" />
          </mxGeometry>
        </mxCell>
        <mxCell id="Frtu5Afy2NNaTnQY8MFh-5" value="" style="strokeWidth=2;html=1;shape=mxgraph.flowchart.annotation_2;align=left;labelPosition=right;pointerEvents=1;" parent="1" vertex="1">
          <mxGeometry x="-1880.1399999999999" y="140" width="50" height="80" as="geometry" />
        </mxCell>
        <mxCell id="Frtu5Afy2NNaTnQY8MFh-6" value="#include &amp;lt;iostream&amp;gt;&lt;div&gt;using namespace std;&lt;/div&gt;&lt;div style=&quot;&quot;&gt;&lt;span style=&quot;background-color: transparent; font-size: 12px;&quot;&gt;void countingSort(int* a, int size)&lt;/span&gt;&lt;span style=&quot;font-size: 12px;&quot;&gt;;&lt;/span&gt;&lt;/div&gt;&lt;div style=&quot;&quot;&gt;int main()&lt;/div&gt;&lt;div style=&quot;&quot;&gt;{&lt;/div&gt;" style="text;html=1;align=left;verticalAlign=middle;resizable=0;points=[];autosize=1;strokeColor=none;fillColor=none;" parent="1" vertex="1">
          <mxGeometry x="-1850.1399999999999" y="135" width="200" height="90" as="geometry" />
        </mxCell>
        <mxCell id="Frtu5Afy2NNaTnQY8MFh-50" style="edgeStyle=orthogonalEdgeStyle;rounded=0;orthogonalLoop=1;jettySize=auto;html=1;entryX=0.5;entryY=0;entryDx=0;entryDy=0;" parent="1" source="Frtu5Afy2NNaTnQY8MFh-11" target="5L1mM872IayFUB_JROpb-80" edge="1">
          <mxGeometry relative="1" as="geometry">
            <mxPoint x="-1910.1950000000002" y="330" as="targetPoint" />
          </mxGeometry>
        </mxCell>
        <mxCell id="Frtu5Afy2NNaTnQY8MFh-11" value="int a[size]&lt;span style=&quot;background-color: initial;&quot;&gt;;&lt;/span&gt;" style="rounded=0;whiteSpace=wrap;html=1;" parent="1" vertex="1">
          <mxGeometry x="-1970.12" y="260" width="120" height="30" as="geometry" />
        </mxCell>
        <mxCell id="5L1mM872IayFUB_JROpb-49" style="edgeStyle=orthogonalEdgeStyle;rounded=0;orthogonalLoop=1;jettySize=auto;html=1;entryX=0.5;entryY=0;entryDx=0;entryDy=0;" edge="1" parent="1" source="5L1mM872IayFUB_JROpb-47">
          <mxGeometry relative="1" as="geometry">
            <mxPoint x="-1480.01" y="190.20000000000005" as="targetPoint" />
          </mxGeometry>
        </mxCell>
        <mxCell id="5L1mM872IayFUB_JROpb-52" value="" style="group" vertex="1" connectable="0" parent="1">
          <mxGeometry x="-1600.01" y="120" width="240" height="30" as="geometry" />
        </mxCell>
        <mxCell id="5L1mM872IayFUB_JROpb-47" value="" style="rounded=0;whiteSpace=wrap;html=1;" vertex="1" parent="5L1mM872IayFUB_JROpb-52">
          <mxGeometry x="20" width="200" height="30" as="geometry" />
        </mxCell>
        <mxCell id="5L1mM872IayFUB_JROpb-51" value="&lt;div style=&quot;text-align: left;&quot;&gt;&lt;span style=&quot;background-color: transparent; font-size: 12px; text-wrap-mode: nowrap;&quot;&gt;void countingSort(int* a, int size)&lt;/span&gt;&lt;/div&gt;" style="rounded=0;whiteSpace=wrap;html=1;" vertex="1" parent="5L1mM872IayFUB_JROpb-52">
          <mxGeometry x="30" width="180" height="30" as="geometry" />
        </mxCell>
        <mxCell id="5L1mM872IayFUB_JROpb-94" style="edgeStyle=orthogonalEdgeStyle;rounded=0;orthogonalLoop=1;jettySize=auto;html=1;entryX=0.5;entryY=0;entryDx=0;entryDy=0;" edge="1" parent="1" source="5L1mM872IayFUB_JROpb-53" target="5L1mM872IayFUB_JROpb-60">
          <mxGeometry relative="1" as="geometry" />
        </mxCell>
        <mxCell id="5L1mM872IayFUB_JROpb-53" value="cout &amp;lt;&amp;lt; &lt;span style=&quot;font-size: 12px;&quot;&gt;&quot;Массив до сортировки подсчетом: &quot;;&lt;/span&gt;" style="shape=parallelogram;perimeter=parallelogramPerimeter;whiteSpace=wrap;html=1;fixedSize=1;" vertex="1" parent="1">
          <mxGeometry x="-2050" y="360" width="280" height="30" as="geometry" />
        </mxCell>
        <mxCell id="5L1mM872IayFUB_JROpb-92" style="edgeStyle=orthogonalEdgeStyle;rounded=0;orthogonalLoop=1;jettySize=auto;html=1;entryX=0.5;entryY=0;entryDx=0;entryDy=0;" edge="1" parent="1" source="5L1mM872IayFUB_JROpb-54" target="5L1mM872IayFUB_JROpb-88">
          <mxGeometry relative="1" as="geometry" />
        </mxCell>
        <mxCell id="5L1mM872IayFUB_JROpb-54" value="&lt;span style=&quot;font-size: 12px;&quot;&gt;cout &amp;lt;&amp;lt; &quot;Массив после сортировки подсчетом: &quot;;&lt;/span&gt;" style="shape=parallelogram;perimeter=parallelogramPerimeter;whiteSpace=wrap;html=1;fixedSize=1;" vertex="1" parent="1">
          <mxGeometry x="-2060" y="610" width="300" height="30" as="geometry" />
        </mxCell>
        <mxCell id="5L1mM872IayFUB_JROpb-59" style="edgeStyle=orthogonalEdgeStyle;rounded=0;orthogonalLoop=1;jettySize=auto;html=1;exitX=0.5;exitY=1;exitDx=0;exitDy=0;" edge="1" parent="1" source="5L1mM872IayFUB_JROpb-77">
          <mxGeometry relative="1" as="geometry">
            <mxPoint x="-1910" y="560" as="targetPoint" />
            <Array as="points">
              <mxPoint x="-1790" y="540" />
              <mxPoint x="-1910" y="540" />
            </Array>
          </mxGeometry>
        </mxCell>
        <mxCell id="5L1mM872IayFUB_JROpb-63" style="edgeStyle=orthogonalEdgeStyle;rounded=0;orthogonalLoop=1;jettySize=auto;html=1;entryX=0.5;entryY=0;entryDx=0;entryDy=0;" edge="1" parent="1" source="5L1mM872IayFUB_JROpb-60" target="5L1mM872IayFUB_JROpb-62">
          <mxGeometry relative="1" as="geometry" />
        </mxCell>
        <mxCell id="5L1mM872IayFUB_JROpb-153" value="1" style="edgeLabel;html=1;align=center;verticalAlign=middle;resizable=0;points=[];" vertex="1" connectable="0" parent="5L1mM872IayFUB_JROpb-63">
          <mxGeometry x="0.535" y="1" relative="1" as="geometry">
            <mxPoint x="7" y="3" as="offset" />
          </mxGeometry>
        </mxCell>
        <mxCell id="5L1mM872IayFUB_JROpb-79" style="edgeStyle=orthogonalEdgeStyle;rounded=0;orthogonalLoop=1;jettySize=auto;html=1;entryX=0.5;entryY=0;entryDx=0;entryDy=0;" edge="1" parent="1" source="5L1mM872IayFUB_JROpb-60" target="5L1mM872IayFUB_JROpb-77">
          <mxGeometry relative="1" as="geometry">
            <Array as="points">
              <mxPoint x="-1790" y="430" />
            </Array>
          </mxGeometry>
        </mxCell>
        <mxCell id="5L1mM872IayFUB_JROpb-151" value="0" style="edgeLabel;html=1;align=center;verticalAlign=middle;resizable=0;points=[];" vertex="1" connectable="0" parent="5L1mM872IayFUB_JROpb-79">
          <mxGeometry x="-0.7257" y="1" relative="1" as="geometry">
            <mxPoint x="-4" y="-7" as="offset" />
          </mxGeometry>
        </mxCell>
        <mxCell id="5L1mM872IayFUB_JROpb-60" value="for(int i = 1; i &amp;lt; size; i++)" style="shape=hexagon;perimeter=hexagonPerimeter2;whiteSpace=wrap;html=1;fixedSize=1;" vertex="1" parent="1">
          <mxGeometry x="-1990" y="410.08" width="160" height="40" as="geometry" />
        </mxCell>
        <mxCell id="5L1mM872IayFUB_JROpb-61" style="edgeStyle=orthogonalEdgeStyle;rounded=0;orthogonalLoop=1;jettySize=auto;html=1;entryX=0;entryY=0.5;entryDx=0;entryDy=0;" edge="1" parent="1" source="5L1mM872IayFUB_JROpb-62" target="5L1mM872IayFUB_JROpb-60">
          <mxGeometry relative="1" as="geometry">
            <mxPoint x="-2040" y="540.0799999999999" as="targetPoint" />
            <Array as="points">
              <mxPoint x="-1910" y="520" />
              <mxPoint x="-2030" y="520" />
              <mxPoint x="-2030" y="430" />
            </Array>
          </mxGeometry>
        </mxCell>
        <mxCell id="5L1mM872IayFUB_JROpb-172" value="}" style="edgeLabel;html=1;align=center;verticalAlign=middle;resizable=0;points=[];" vertex="1" connectable="0" parent="5L1mM872IayFUB_JROpb-61">
          <mxGeometry x="-0.9186" y="1" relative="1" as="geometry">
            <mxPoint x="6" y="-2" as="offset" />
          </mxGeometry>
        </mxCell>
        <mxCell id="5L1mM872IayFUB_JROpb-173" value="{" style="edgeLabel;html=1;align=center;verticalAlign=middle;resizable=0;points=[];" vertex="1" connectable="0" parent="5L1mM872IayFUB_JROpb-61">
          <mxGeometry x="-0.9168" relative="1" as="geometry">
            <mxPoint x="-10" y="-52" as="offset" />
          </mxGeometry>
        </mxCell>
        <mxCell id="5L1mM872IayFUB_JROpb-62" value="cout &amp;lt;&amp;lt; a[i]&lt;div&gt;&amp;lt;&amp;lt; &#39; &#39;;&lt;/div&gt;" style="shape=parallelogram;perimeter=parallelogramPerimeter;whiteSpace=wrap;html=1;fixedSize=1;" vertex="1" parent="1">
          <mxGeometry x="-1960" y="470.03" width="100" height="30" as="geometry" />
        </mxCell>
        <mxCell id="5L1mM872IayFUB_JROpb-66" style="edgeStyle=orthogonalEdgeStyle;rounded=0;orthogonalLoop=1;jettySize=auto;html=1;entryX=0.5;entryY=0;entryDx=0;entryDy=0;" edge="1" parent="1" source="5L1mM872IayFUB_JROpb-64" target="5L1mM872IayFUB_JROpb-65">
          <mxGeometry relative="1" as="geometry" />
        </mxCell>
        <mxCell id="5L1mM872IayFUB_JROpb-64" value="int min, max;" style="rounded=0;whiteSpace=wrap;html=1;" vertex="1" parent="1">
          <mxGeometry x="-1520.01" y="320.20000000000005" width="80" height="30" as="geometry" />
        </mxCell>
        <mxCell id="5L1mM872IayFUB_JROpb-68" style="edgeStyle=orthogonalEdgeStyle;rounded=0;orthogonalLoop=1;jettySize=auto;html=1;entryX=0.5;entryY=0;entryDx=0;entryDy=0;" edge="1" parent="1" source="5L1mM872IayFUB_JROpb-65" target="5L1mM872IayFUB_JROpb-67">
          <mxGeometry relative="1" as="geometry" />
        </mxCell>
        <mxCell id="5L1mM872IayFUB_JROpb-65" value="min = max = a[0];" style="rounded=0;whiteSpace=wrap;html=1;" vertex="1" parent="1">
          <mxGeometry x="-1530.01" y="370.20000000000005" width="100" height="30" as="geometry" />
        </mxCell>
        <mxCell id="5L1mM872IayFUB_JROpb-105" style="edgeStyle=orthogonalEdgeStyle;rounded=0;orthogonalLoop=1;jettySize=auto;html=1;entryX=0.5;entryY=0;entryDx=0;entryDy=0;" edge="1" parent="1" source="5L1mM872IayFUB_JROpb-67" target="5L1mM872IayFUB_JROpb-69">
          <mxGeometry relative="1" as="geometry" />
        </mxCell>
        <mxCell id="5L1mM872IayFUB_JROpb-138" value="1" style="edgeLabel;html=1;align=center;verticalAlign=middle;resizable=0;points=[];" vertex="1" connectable="0" parent="5L1mM872IayFUB_JROpb-105">
          <mxGeometry x="0.0018" y="-1" relative="1" as="geometry">
            <mxPoint x="7" as="offset" />
          </mxGeometry>
        </mxCell>
        <mxCell id="5L1mM872IayFUB_JROpb-106" style="edgeStyle=orthogonalEdgeStyle;rounded=0;orthogonalLoop=1;jettySize=auto;html=1;entryX=0.5;entryY=0;entryDx=0;entryDy=0;" edge="1" parent="1" source="5L1mM872IayFUB_JROpb-67" target="5L1mM872IayFUB_JROpb-107">
          <mxGeometry relative="1" as="geometry">
            <mxPoint x="-1480.01" y="700.2" as="targetPoint" />
            <Array as="points">
              <mxPoint x="-1260" y="440" />
              <mxPoint x="-1260" y="690" />
              <mxPoint x="-1480" y="690" />
            </Array>
          </mxGeometry>
        </mxCell>
        <mxCell id="5L1mM872IayFUB_JROpb-139" value="0" style="edgeLabel;html=1;align=center;verticalAlign=middle;resizable=0;points=[];" vertex="1" connectable="0" parent="5L1mM872IayFUB_JROpb-106">
          <mxGeometry x="-0.946" y="1" relative="1" as="geometry">
            <mxPoint x="-9" y="-7" as="offset" />
          </mxGeometry>
        </mxCell>
        <mxCell id="5L1mM872IayFUB_JROpb-67" value="for(int i = 1; i &amp;lt; size; i++)" style="shape=hexagon;perimeter=hexagonPerimeter2;whiteSpace=wrap;html=1;fixedSize=1;" vertex="1" parent="1">
          <mxGeometry x="-1560.01" y="420.20000000000005" width="160" height="40" as="geometry" />
        </mxCell>
        <mxCell id="5L1mM872IayFUB_JROpb-70" style="edgeStyle=orthogonalEdgeStyle;rounded=0;orthogonalLoop=1;jettySize=auto;html=1;entryX=0.5;entryY=0;entryDx=0;entryDy=0;" edge="1" parent="1" source="5L1mM872IayFUB_JROpb-69" target="5L1mM872IayFUB_JROpb-71">
          <mxGeometry relative="1" as="geometry">
            <mxPoint x="-1570.01" y="520.2" as="targetPoint" />
            <Array as="points">
              <mxPoint x="-1570.01" y="505.20000000000005" />
            </Array>
          </mxGeometry>
        </mxCell>
        <mxCell id="5L1mM872IayFUB_JROpb-140" value="1" style="edgeLabel;html=1;align=center;verticalAlign=middle;resizable=0;points=[];" vertex="1" connectable="0" parent="5L1mM872IayFUB_JROpb-70">
          <mxGeometry x="-0.7973" y="1" relative="1" as="geometry">
            <mxPoint x="2" y="-9" as="offset" />
          </mxGeometry>
        </mxCell>
        <mxCell id="5L1mM872IayFUB_JROpb-163" value="{" style="edgeLabel;html=1;align=center;verticalAlign=middle;resizable=0;points=[];" vertex="1" connectable="0" parent="5L1mM872IayFUB_JROpb-70">
          <mxGeometry x="0.5267" y="1" relative="1" as="geometry">
            <mxPoint x="7" y="3" as="offset" />
          </mxGeometry>
        </mxCell>
        <mxCell id="5L1mM872IayFUB_JROpb-75" style="edgeStyle=orthogonalEdgeStyle;rounded=0;orthogonalLoop=1;jettySize=auto;html=1;entryX=0.5;entryY=0;entryDx=0;entryDy=0;" edge="1" parent="1" source="5L1mM872IayFUB_JROpb-69" target="5L1mM872IayFUB_JROpb-74">
          <mxGeometry relative="1" as="geometry">
            <Array as="points">
              <mxPoint x="-1390.01" y="505.20000000000005" />
            </Array>
          </mxGeometry>
        </mxCell>
        <mxCell id="5L1mM872IayFUB_JROpb-141" value="0" style="edgeLabel;html=1;align=center;verticalAlign=middle;resizable=0;points=[];" vertex="1" connectable="0" parent="5L1mM872IayFUB_JROpb-75">
          <mxGeometry x="-0.6016" relative="1" as="geometry">
            <mxPoint x="-4" y="-8" as="offset" />
          </mxGeometry>
        </mxCell>
        <mxCell id="5L1mM872IayFUB_JROpb-69" value="if(a[i] &amp;lt; min)" style="rhombus;whiteSpace=wrap;html=1;" vertex="1" parent="1">
          <mxGeometry x="-1530.01" y="480.20000000000005" width="100" height="50" as="geometry" />
        </mxCell>
        <mxCell id="5L1mM872IayFUB_JROpb-104" style="edgeStyle=orthogonalEdgeStyle;rounded=0;orthogonalLoop=1;jettySize=auto;html=1;entryX=0;entryY=0.5;entryDx=0;entryDy=0;" edge="1" parent="1" source="5L1mM872IayFUB_JROpb-71" target="5L1mM872IayFUB_JROpb-67">
          <mxGeometry relative="1" as="geometry">
            <mxPoint x="-1640.01" y="670.2" as="targetPoint" />
            <Array as="points">
              <mxPoint x="-1570" y="650" />
              <mxPoint x="-1480" y="650" />
              <mxPoint x="-1480" y="670" />
              <mxPoint x="-1630" y="670" />
              <mxPoint x="-1630" y="440" />
            </Array>
          </mxGeometry>
        </mxCell>
        <mxCell id="5L1mM872IayFUB_JROpb-164" value="}" style="edgeLabel;html=1;align=center;verticalAlign=middle;resizable=0;points=[];" vertex="1" connectable="0" parent="5L1mM872IayFUB_JROpb-104">
          <mxGeometry x="-0.976" y="1" relative="1" as="geometry">
            <mxPoint x="6" y="2" as="offset" />
          </mxGeometry>
        </mxCell>
        <mxCell id="5L1mM872IayFUB_JROpb-167" value="}" style="edgeLabel;html=1;align=center;verticalAlign=middle;resizable=0;points=[];" vertex="1" connectable="0" parent="5L1mM872IayFUB_JROpb-104">
          <mxGeometry x="-0.4229" relative="1" as="geometry">
            <mxPoint x="8" y="1" as="offset" />
          </mxGeometry>
        </mxCell>
        <mxCell id="5L1mM872IayFUB_JROpb-71" value="min = a[i];" style="rounded=0;whiteSpace=wrap;html=1;" vertex="1" parent="1">
          <mxGeometry x="-1610.01" y="530.2" width="80" height="30" as="geometry" />
        </mxCell>
        <mxCell id="5L1mM872IayFUB_JROpb-101" style="edgeStyle=orthogonalEdgeStyle;rounded=0;orthogonalLoop=1;jettySize=auto;html=1;entryX=0.5;entryY=0;entryDx=0;entryDy=0;" edge="1" parent="1" source="5L1mM872IayFUB_JROpb-74" target="5L1mM872IayFUB_JROpb-76">
          <mxGeometry relative="1" as="geometry">
            <mxPoint x="-1480.01" y="570.2" as="targetPoint" />
            <Array as="points">
              <mxPoint x="-1480" y="555" />
            </Array>
          </mxGeometry>
        </mxCell>
        <mxCell id="5L1mM872IayFUB_JROpb-142" value="1" style="edgeLabel;html=1;align=center;verticalAlign=middle;resizable=0;points=[];" vertex="1" connectable="0" parent="5L1mM872IayFUB_JROpb-101">
          <mxGeometry x="-0.7301" relative="1" as="geometry">
            <mxPoint y="-8" as="offset" />
          </mxGeometry>
        </mxCell>
        <mxCell id="5L1mM872IayFUB_JROpb-165" value="{" style="edgeLabel;html=1;align=center;verticalAlign=middle;resizable=0;points=[];" vertex="1" connectable="0" parent="5L1mM872IayFUB_JROpb-101">
          <mxGeometry x="0.5521" relative="1" as="geometry">
            <mxPoint x="9" y="2" as="offset" />
          </mxGeometry>
        </mxCell>
        <mxCell id="5L1mM872IayFUB_JROpb-102" style="edgeStyle=orthogonalEdgeStyle;rounded=0;orthogonalLoop=1;jettySize=auto;html=1;endArrow=none;startFill=0;" edge="1" parent="1" source="5L1mM872IayFUB_JROpb-74">
          <mxGeometry relative="1" as="geometry">
            <mxPoint x="-1390" y="630" as="targetPoint" />
            <Array as="points">
              <mxPoint x="-1300" y="555" />
              <mxPoint x="-1300" y="630" />
              <mxPoint x="-1390" y="630" />
            </Array>
          </mxGeometry>
        </mxCell>
        <mxCell id="5L1mM872IayFUB_JROpb-143" value="0" style="edgeLabel;html=1;align=center;verticalAlign=middle;resizable=0;points=[];" vertex="1" connectable="0" parent="5L1mM872IayFUB_JROpb-102">
          <mxGeometry x="-0.9315" y="1" relative="1" as="geometry">
            <mxPoint y="-7" as="offset" />
          </mxGeometry>
        </mxCell>
        <mxCell id="5L1mM872IayFUB_JROpb-74" value="if(a[i] &amp;gt; min)" style="rhombus;whiteSpace=wrap;html=1;" vertex="1" parent="1">
          <mxGeometry x="-1440.01" y="530.2" width="100" height="50" as="geometry" />
        </mxCell>
        <mxCell id="5L1mM872IayFUB_JROpb-103" style="edgeStyle=orthogonalEdgeStyle;rounded=0;orthogonalLoop=1;jettySize=auto;html=1;endArrow=none;startFill=0;" edge="1" parent="1" source="5L1mM872IayFUB_JROpb-76">
          <mxGeometry relative="1" as="geometry">
            <mxPoint x="-1480" y="650" as="targetPoint" />
            <Array as="points">
              <mxPoint x="-1480" y="630" />
              <mxPoint x="-1390" y="630" />
              <mxPoint x="-1390" y="650" />
              <mxPoint x="-1480" y="650" />
            </Array>
          </mxGeometry>
        </mxCell>
        <mxCell id="5L1mM872IayFUB_JROpb-166" value="}" style="edgeLabel;html=1;align=center;verticalAlign=middle;resizable=0;points=[];" vertex="1" connectable="0" parent="5L1mM872IayFUB_JROpb-103">
          <mxGeometry x="-0.9451" relative="1" as="geometry">
            <mxPoint x="8" y="2" as="offset" />
          </mxGeometry>
        </mxCell>
        <mxCell id="5L1mM872IayFUB_JROpb-76" value="max = a[i];" style="rounded=0;whiteSpace=wrap;html=1;" vertex="1" parent="1">
          <mxGeometry x="-1520.01" y="580" width="80" height="30" as="geometry" />
        </mxCell>
        <mxCell id="5L1mM872IayFUB_JROpb-77" value="cout &amp;lt;&amp;lt; endl&lt;span style=&quot;background-color: transparent; color: light-dark(rgb(0, 0, 0), rgb(255, 255, 255));&quot;&gt;;&lt;/span&gt;" style="shape=parallelogram;perimeter=parallelogramPerimeter;whiteSpace=wrap;html=1;fixedSize=1;" vertex="1" parent="1">
          <mxGeometry x="-1840.1799999999998" y="470.03" width="100" height="30" as="geometry" />
        </mxCell>
        <mxCell id="5L1mM872IayFUB_JROpb-100" style="edgeStyle=orthogonalEdgeStyle;rounded=0;orthogonalLoop=1;jettySize=auto;html=1;entryX=0.5;entryY=0;entryDx=0;entryDy=0;" edge="1" parent="1" source="5L1mM872IayFUB_JROpb-80" target="5L1mM872IayFUB_JROpb-53">
          <mxGeometry relative="1" as="geometry" />
        </mxCell>
        <mxCell id="5L1mM872IayFUB_JROpb-80" value="int a[size] =&amp;nbsp;{ 4, 2, 6, 1, 7, 3, 5, 2, 8, 3 }&lt;span style=&quot;background-color: initial;&quot;&gt;;&lt;/span&gt;" style="rounded=0;whiteSpace=wrap;html=1;" vertex="1" parent="1">
          <mxGeometry x="-2025.22" y="310" width="230.21" height="30" as="geometry" />
        </mxCell>
        <mxCell id="5L1mM872IayFUB_JROpb-82" value="" style="group" vertex="1" connectable="0" parent="1">
          <mxGeometry x="-2030" y="560" width="240" height="30" as="geometry" />
        </mxCell>
        <mxCell id="5L1mM872IayFUB_JROpb-83" value="" style="rounded=0;whiteSpace=wrap;html=1;" vertex="1" parent="5L1mM872IayFUB_JROpb-82">
          <mxGeometry x="30" width="180" height="30" as="geometry" />
        </mxCell>
        <mxCell id="5L1mM872IayFUB_JROpb-84" value="&lt;div style=&quot;text-align: left;&quot;&gt;&lt;span style=&quot;background-color: transparent;&quot;&gt;&lt;span style=&quot;font-size: 12px; text-wrap-mode: nowrap;&quot;&gt;void countingSort(a, size);&lt;/span&gt;&lt;/span&gt;&lt;/div&gt;" style="rounded=0;whiteSpace=wrap;html=1;" vertex="1" parent="5L1mM872IayFUB_JROpb-82">
          <mxGeometry x="40" width="160" height="30" as="geometry" />
        </mxCell>
        <mxCell id="5L1mM872IayFUB_JROpb-85" style="edgeStyle=orthogonalEdgeStyle;rounded=0;orthogonalLoop=1;jettySize=auto;html=1;entryX=0.5;entryY=0;entryDx=0;entryDy=0;" edge="1" parent="1" source="5L1mM872IayFUB_JROpb-84" target="5L1mM872IayFUB_JROpb-54">
          <mxGeometry relative="1" as="geometry" />
        </mxCell>
        <mxCell id="5L1mM872IayFUB_JROpb-86" style="edgeStyle=orthogonalEdgeStyle;rounded=0;orthogonalLoop=1;jettySize=auto;html=1;entryX=0.5;entryY=0;entryDx=0;entryDy=0;" edge="1" parent="1" source="5L1mM872IayFUB_JROpb-88" target="5L1mM872IayFUB_JROpb-90">
          <mxGeometry relative="1" as="geometry" />
        </mxCell>
        <mxCell id="5L1mM872IayFUB_JROpb-154" value="1" style="edgeLabel;html=1;align=center;verticalAlign=middle;resizable=0;points=[];" vertex="1" connectable="0" parent="5L1mM872IayFUB_JROpb-86">
          <mxGeometry x="0.0928" y="-1" relative="1" as="geometry">
            <mxPoint x="7" y="2" as="offset" />
          </mxGeometry>
        </mxCell>
        <mxCell id="5L1mM872IayFUB_JROpb-156" value="{" style="edgeLabel;html=1;align=center;verticalAlign=middle;resizable=0;points=[];" vertex="1" connectable="0" parent="5L1mM872IayFUB_JROpb-86">
          <mxGeometry x="0.6068" y="-1" relative="1" as="geometry">
            <mxPoint x="-9" as="offset" />
          </mxGeometry>
        </mxCell>
        <mxCell id="5L1mM872IayFUB_JROpb-87" style="edgeStyle=orthogonalEdgeStyle;rounded=0;orthogonalLoop=1;jettySize=auto;html=1;entryX=0.5;entryY=0;entryDx=0;entryDy=0;" edge="1" parent="1" source="5L1mM872IayFUB_JROpb-88" target="5L1mM872IayFUB_JROpb-96">
          <mxGeometry relative="1" as="geometry">
            <Array as="points">
              <mxPoint x="-1790" y="680" />
              <mxPoint x="-1790" y="790" />
              <mxPoint x="-1910" y="790" />
            </Array>
            <mxPoint x="-1910" y="810" as="targetPoint" />
          </mxGeometry>
        </mxCell>
        <mxCell id="5L1mM872IayFUB_JROpb-158" value="0" style="edgeLabel;html=1;align=center;verticalAlign=middle;resizable=0;points=[];" vertex="1" connectable="0" parent="5L1mM872IayFUB_JROpb-87">
          <mxGeometry x="-0.9334" y="-1" relative="1" as="geometry">
            <mxPoint x="-4" y="-10" as="offset" />
          </mxGeometry>
        </mxCell>
        <mxCell id="5L1mM872IayFUB_JROpb-88" value="for(int i = 1; i &amp;lt; size; i++)" style="shape=hexagon;perimeter=hexagonPerimeter2;whiteSpace=wrap;html=1;fixedSize=1;" vertex="1" parent="1">
          <mxGeometry x="-1990.0300000000002" y="660" width="160" height="40" as="geometry" />
        </mxCell>
        <mxCell id="5L1mM872IayFUB_JROpb-89" style="edgeStyle=orthogonalEdgeStyle;rounded=0;orthogonalLoop=1;jettySize=auto;html=1;entryX=0;entryY=0.5;entryDx=0;entryDy=0;" edge="1" parent="1" source="5L1mM872IayFUB_JROpb-90" target="5L1mM872IayFUB_JROpb-88">
          <mxGeometry relative="1" as="geometry">
            <mxPoint x="-2040.0300000000002" y="790" as="targetPoint" />
            <Array as="points">
              <mxPoint x="-1910.0300000000002" y="769.92" />
              <mxPoint x="-2030.0300000000002" y="769.92" />
              <mxPoint x="-2030.0300000000002" y="679.92" />
            </Array>
          </mxGeometry>
        </mxCell>
        <mxCell id="5L1mM872IayFUB_JROpb-157" value="}" style="edgeLabel;html=1;align=center;verticalAlign=middle;resizable=0;points=[];" vertex="1" connectable="0" parent="5L1mM872IayFUB_JROpb-89">
          <mxGeometry x="-0.9504" relative="1" as="geometry">
            <mxPoint x="7" y="2" as="offset" />
          </mxGeometry>
        </mxCell>
        <mxCell id="5L1mM872IayFUB_JROpb-90" value="cout &amp;lt;&amp;lt; a[i]&lt;div&gt;&amp;lt;&amp;lt; &#39; &#39;;&lt;/div&gt;" style="shape=parallelogram;perimeter=parallelogramPerimeter;whiteSpace=wrap;html=1;fixedSize=1;" vertex="1" parent="1">
          <mxGeometry x="-1960.0300000000002" y="719.9499999999999" width="100" height="30" as="geometry" />
        </mxCell>
        <mxCell id="5L1mM872IayFUB_JROpb-96" value="Конец" style="ellipse;whiteSpace=wrap;html=1;" vertex="1" parent="1">
          <mxGeometry x="-1950" y="850" width="80" height="40" as="geometry" />
        </mxCell>
        <mxCell id="5L1mM872IayFUB_JROpb-97" style="edgeStyle=orthogonalEdgeStyle;rounded=0;orthogonalLoop=1;jettySize=auto;html=1;endArrow=none;endFill=0;dashed=1;" edge="1" parent="1" source="5L1mM872IayFUB_JROpb-98">
          <mxGeometry relative="1" as="geometry">
            <mxPoint x="-1909.96" y="830" as="targetPoint" />
          </mxGeometry>
        </mxCell>
        <mxCell id="5L1mM872IayFUB_JROpb-98" value="" style="strokeWidth=2;html=1;shape=mxgraph.flowchart.annotation_2;align=left;labelPosition=right;pointerEvents=1;" vertex="1" parent="1">
          <mxGeometry x="-1880" y="800" width="50" height="60" as="geometry" />
        </mxCell>
        <mxCell id="5L1mM872IayFUB_JROpb-99" value="return 0;&lt;div&gt;}&lt;/div&gt;" style="text;html=1;align=left;verticalAlign=middle;resizable=0;points=[];autosize=1;strokeColor=none;fillColor=none;" vertex="1" parent="1">
          <mxGeometry x="-1850" y="810.15" width="70" height="40" as="geometry" />
        </mxCell>
        <mxCell id="5L1mM872IayFUB_JROpb-114" style="edgeStyle=orthogonalEdgeStyle;rounded=0;orthogonalLoop=1;jettySize=auto;html=1;entryX=0.5;entryY=0;entryDx=0;entryDy=0;" edge="1" parent="1" source="5L1mM872IayFUB_JROpb-107" target="5L1mM872IayFUB_JROpb-113">
          <mxGeometry relative="1" as="geometry" />
        </mxCell>
        <mxCell id="5L1mM872IayFUB_JROpb-107" value="int temp_size = max - min + 1;" style="rounded=0;whiteSpace=wrap;html=1;" vertex="1" parent="1">
          <mxGeometry x="-1570" y="710" width="180" height="30" as="geometry" />
        </mxCell>
        <mxCell id="5L1mM872IayFUB_JROpb-110" style="edgeStyle=orthogonalEdgeStyle;rounded=0;orthogonalLoop=1;jettySize=auto;html=1;entryX=0.5;entryY=0;entryDx=0;entryDy=0;" edge="1" parent="1" source="5L1mM872IayFUB_JROpb-108" target="5L1mM872IayFUB_JROpb-109">
          <mxGeometry relative="1" as="geometry">
            <Array as="points">
              <mxPoint x="-1570.01" y="215.20000000000005" />
            </Array>
          </mxGeometry>
        </mxCell>
        <mxCell id="5L1mM872IayFUB_JROpb-136" value="1" style="edgeLabel;html=1;align=center;verticalAlign=middle;resizable=0;points=[];" vertex="1" connectable="0" parent="5L1mM872IayFUB_JROpb-110">
          <mxGeometry x="-0.736" y="1" relative="1" as="geometry">
            <mxPoint x="3" y="-9" as="offset" />
          </mxGeometry>
        </mxCell>
        <mxCell id="5L1mM872IayFUB_JROpb-170" value="{" style="edgeLabel;html=1;align=center;verticalAlign=middle;resizable=0;points=[];" vertex="1" connectable="0" parent="5L1mM872IayFUB_JROpb-110">
          <mxGeometry x="0.4932" relative="1" as="geometry">
            <mxPoint x="9" y="3" as="offset" />
          </mxGeometry>
        </mxCell>
        <mxCell id="5L1mM872IayFUB_JROpb-111" style="edgeStyle=orthogonalEdgeStyle;rounded=0;orthogonalLoop=1;jettySize=auto;html=1;" edge="1" parent="1" source="5L1mM872IayFUB_JROpb-108">
          <mxGeometry relative="1" as="geometry">
            <mxPoint x="-1480.01" y="320.20000000000005" as="targetPoint" />
            <Array as="points">
              <mxPoint x="-1390.01" y="215.20000000000005" />
              <mxPoint x="-1390.01" y="300.20000000000005" />
              <mxPoint x="-1480.01" y="300.20000000000005" />
            </Array>
          </mxGeometry>
        </mxCell>
        <mxCell id="5L1mM872IayFUB_JROpb-137" value="0" style="edgeLabel;html=1;align=center;verticalAlign=middle;resizable=0;points=[];" vertex="1" connectable="0" parent="5L1mM872IayFUB_JROpb-111">
          <mxGeometry x="-0.9152" relative="1" as="geometry">
            <mxPoint x="-1" y="-8" as="offset" />
          </mxGeometry>
        </mxCell>
        <mxCell id="5L1mM872IayFUB_JROpb-108" value="if(size &amp;lt; 2)" style="rhombus;whiteSpace=wrap;html=1;" vertex="1" parent="1">
          <mxGeometry x="-1530.01" y="190.20000000000005" width="100" height="50" as="geometry" />
        </mxCell>
        <mxCell id="5L1mM872IayFUB_JROpb-112" style="edgeStyle=orthogonalEdgeStyle;rounded=0;orthogonalLoop=1;jettySize=auto;html=1;endArrow=none;startFill=0;" edge="1" parent="1" source="5L1mM872IayFUB_JROpb-109">
          <mxGeometry relative="1" as="geometry">
            <mxPoint x="-1480.01" y="300.20000000000005" as="targetPoint" />
            <Array as="points">
              <mxPoint x="-1570.01" y="300.20000000000005" />
            </Array>
          </mxGeometry>
        </mxCell>
        <mxCell id="5L1mM872IayFUB_JROpb-171" value="}" style="edgeLabel;html=1;align=center;verticalAlign=middle;resizable=0;points=[];" vertex="1" connectable="0" parent="5L1mM872IayFUB_JROpb-112">
          <mxGeometry x="-0.9005" relative="1" as="geometry">
            <mxPoint x="9" y="2" as="offset" />
          </mxGeometry>
        </mxCell>
        <mxCell id="5L1mM872IayFUB_JROpb-109" value="return;" style="ellipse;whiteSpace=wrap;html=1;" vertex="1" parent="1">
          <mxGeometry x="-1610.01" y="240.20000000000005" width="80" height="40" as="geometry" />
        </mxCell>
        <mxCell id="5L1mM872IayFUB_JROpb-116" style="edgeStyle=orthogonalEdgeStyle;rounded=0;orthogonalLoop=1;jettySize=auto;html=1;entryX=0.5;entryY=0;entryDx=0;entryDy=0;" edge="1" parent="1" source="5L1mM872IayFUB_JROpb-113" target="5L1mM872IayFUB_JROpb-115">
          <mxGeometry relative="1" as="geometry" />
        </mxCell>
        <mxCell id="5L1mM872IayFUB_JROpb-113" value="int* temp = new int[temp_size] {};" style="rounded=0;whiteSpace=wrap;html=1;" vertex="1" parent="1">
          <mxGeometry x="-1580" y="761" width="200" height="30" as="geometry" />
        </mxCell>
        <mxCell id="5L1mM872IayFUB_JROpb-118" style="edgeStyle=orthogonalEdgeStyle;rounded=0;orthogonalLoop=1;jettySize=auto;html=1;entryX=0.5;entryY=0;entryDx=0;entryDy=0;" edge="1" parent="1" source="5L1mM872IayFUB_JROpb-115" target="5L1mM872IayFUB_JROpb-117">
          <mxGeometry relative="1" as="geometry" />
        </mxCell>
        <mxCell id="5L1mM872IayFUB_JROpb-144" value="1" style="edgeLabel;html=1;align=center;verticalAlign=middle;resizable=0;points=[];" vertex="1" connectable="0" parent="5L1mM872IayFUB_JROpb-118">
          <mxGeometry x="-0.8428" y="1" relative="1" as="geometry">
            <mxPoint x="7" y="4" as="offset" />
          </mxGeometry>
        </mxCell>
        <mxCell id="5L1mM872IayFUB_JROpb-162" value="{" style="edgeLabel;html=1;align=center;verticalAlign=middle;resizable=0;points=[];" vertex="1" connectable="0" parent="5L1mM872IayFUB_JROpb-118">
          <mxGeometry x="0.4735" relative="1" as="geometry">
            <mxPoint x="-10" y="4" as="offset" />
          </mxGeometry>
        </mxCell>
        <mxCell id="5L1mM872IayFUB_JROpb-120" style="edgeStyle=orthogonalEdgeStyle;rounded=0;orthogonalLoop=1;jettySize=auto;html=1;" edge="1" parent="1" source="5L1mM872IayFUB_JROpb-115">
          <mxGeometry relative="1" as="geometry">
            <mxPoint x="-1480" y="961" as="targetPoint" />
            <Array as="points">
              <mxPoint x="-1360" y="831" />
              <mxPoint x="-1360" y="941" />
              <mxPoint x="-1480" y="941" />
            </Array>
          </mxGeometry>
        </mxCell>
        <mxCell id="5L1mM872IayFUB_JROpb-145" value="0" style="edgeLabel;html=1;align=center;verticalAlign=middle;resizable=0;points=[];" vertex="1" connectable="0" parent="5L1mM872IayFUB_JROpb-120">
          <mxGeometry x="-0.9349" y="-1" relative="1" as="geometry">
            <mxPoint x="-1" y="-9" as="offset" />
          </mxGeometry>
        </mxCell>
        <mxCell id="5L1mM872IayFUB_JROpb-115" value="for(int i = 0; i &amp;lt; size; i++)" style="shape=hexagon;perimeter=hexagonPerimeter2;whiteSpace=wrap;html=1;fixedSize=1;" vertex="1" parent="1">
          <mxGeometry x="-1560" y="811" width="160" height="40" as="geometry" />
        </mxCell>
        <mxCell id="5L1mM872IayFUB_JROpb-119" style="edgeStyle=orthogonalEdgeStyle;rounded=0;orthogonalLoop=1;jettySize=auto;html=1;entryX=0;entryY=0.5;entryDx=0;entryDy=0;" edge="1" parent="1" source="5L1mM872IayFUB_JROpb-117" target="5L1mM872IayFUB_JROpb-115">
          <mxGeometry relative="1" as="geometry">
            <Array as="points">
              <mxPoint x="-1480" y="921" />
              <mxPoint x="-1600" y="921" />
              <mxPoint x="-1600" y="831" />
            </Array>
          </mxGeometry>
        </mxCell>
        <mxCell id="5L1mM872IayFUB_JROpb-161" value="}" style="edgeLabel;html=1;align=center;verticalAlign=middle;resizable=0;points=[];" vertex="1" connectable="0" parent="5L1mM872IayFUB_JROpb-119">
          <mxGeometry x="-0.9318" relative="1" as="geometry">
            <mxPoint x="6" y="-1" as="offset" />
          </mxGeometry>
        </mxCell>
        <mxCell id="5L1mM872IayFUB_JROpb-117" value="temp[a[i]-min]++;" style="rounded=0;whiteSpace=wrap;html=1;" vertex="1" parent="1">
          <mxGeometry x="-1530" y="871" width="100" height="30" as="geometry" />
        </mxCell>
        <mxCell id="5L1mM872IayFUB_JROpb-124" style="edgeStyle=orthogonalEdgeStyle;rounded=0;orthogonalLoop=1;jettySize=auto;html=1;entryX=0.5;entryY=0;entryDx=0;entryDy=0;" edge="1" parent="1" source="5L1mM872IayFUB_JROpb-121" target="5L1mM872IayFUB_JROpb-123">
          <mxGeometry relative="1" as="geometry" />
        </mxCell>
        <mxCell id="5L1mM872IayFUB_JROpb-121" value="int i = 0;" style="rounded=0;whiteSpace=wrap;html=1;" vertex="1" parent="1">
          <mxGeometry x="-1520" y="961" width="80" height="30" as="geometry" />
        </mxCell>
        <mxCell id="5L1mM872IayFUB_JROpb-126" style="edgeStyle=orthogonalEdgeStyle;rounded=0;orthogonalLoop=1;jettySize=auto;html=1;entryX=0.5;entryY=0;entryDx=0;entryDy=0;" edge="1" parent="1" source="5L1mM872IayFUB_JROpb-123" target="5L1mM872IayFUB_JROpb-125">
          <mxGeometry relative="1" as="geometry" />
        </mxCell>
        <mxCell id="5L1mM872IayFUB_JROpb-146" value="1" style="edgeLabel;html=1;align=center;verticalAlign=middle;resizable=0;points=[];" vertex="1" connectable="0" parent="5L1mM872IayFUB_JROpb-126">
          <mxGeometry x="0.5054" relative="1" as="geometry">
            <mxPoint x="8" y="4" as="offset" />
          </mxGeometry>
        </mxCell>
        <mxCell id="5L1mM872IayFUB_JROpb-174" value="{" style="edgeLabel;html=1;align=center;verticalAlign=middle;resizable=0;points=[];" vertex="1" connectable="0" parent="5L1mM872IayFUB_JROpb-126">
          <mxGeometry x="0.1166" relative="1" as="geometry">
            <mxPoint x="-10" y="2" as="offset" />
          </mxGeometry>
        </mxCell>
        <mxCell id="5L1mM872IayFUB_JROpb-134" style="edgeStyle=orthogonalEdgeStyle;rounded=0;orthogonalLoop=1;jettySize=auto;html=1;entryX=0.5;entryY=0;entryDx=0;entryDy=0;" edge="1" parent="1" source="5L1mM872IayFUB_JROpb-123" target="5L1mM872IayFUB_JROpb-135">
          <mxGeometry relative="1" as="geometry">
            <mxPoint x="-1480" y="1291" as="targetPoint" />
            <Array as="points">
              <mxPoint x="-1300" y="1031" />
              <mxPoint x="-1300" y="1271" />
              <mxPoint x="-1480" y="1271" />
            </Array>
          </mxGeometry>
        </mxCell>
        <mxCell id="5L1mM872IayFUB_JROpb-150" value="0" style="edgeLabel;html=1;align=center;verticalAlign=middle;resizable=0;points=[];" vertex="1" connectable="0" parent="5L1mM872IayFUB_JROpb-134">
          <mxGeometry x="-0.9489" relative="1" as="geometry">
            <mxPoint x="-6" y="-8" as="offset" />
          </mxGeometry>
        </mxCell>
        <mxCell id="5L1mM872IayFUB_JROpb-123" value="for(int j = 0; j &amp;lt; temp_size; j++)" style="shape=hexagon;perimeter=hexagonPerimeter2;whiteSpace=wrap;html=1;fixedSize=1;" vertex="1" parent="1">
          <mxGeometry x="-1580" y="1011" width="200" height="40" as="geometry" />
        </mxCell>
        <mxCell id="5L1mM872IayFUB_JROpb-129" style="edgeStyle=orthogonalEdgeStyle;rounded=0;orthogonalLoop=1;jettySize=auto;html=1;entryX=0.5;entryY=0;entryDx=0;entryDy=0;" edge="1" parent="1" source="5L1mM872IayFUB_JROpb-125" target="5L1mM872IayFUB_JROpb-127">
          <mxGeometry relative="1" as="geometry" />
        </mxCell>
        <mxCell id="5L1mM872IayFUB_JROpb-133" style="edgeStyle=orthogonalEdgeStyle;rounded=0;orthogonalLoop=1;jettySize=auto;html=1;entryX=0;entryY=0.5;entryDx=0;entryDy=0;" edge="1" parent="1" source="5L1mM872IayFUB_JROpb-125" target="5L1mM872IayFUB_JROpb-123">
          <mxGeometry relative="1" as="geometry">
            <mxPoint x="-1740" y="1201" as="targetPoint" />
            <Array as="points">
              <mxPoint x="-1340" y="1091" />
              <mxPoint x="-1340" y="1251" />
              <mxPoint x="-1660" y="1251" />
              <mxPoint x="-1660" y="1031" />
            </Array>
          </mxGeometry>
        </mxCell>
        <mxCell id="5L1mM872IayFUB_JROpb-149" value="0" style="edgeLabel;html=1;align=center;verticalAlign=middle;resizable=0;points=[];" vertex="1" connectable="0" parent="5L1mM872IayFUB_JROpb-133">
          <mxGeometry x="-0.9684" y="1" relative="1" as="geometry">
            <mxPoint x="-7" y="-7" as="offset" />
          </mxGeometry>
        </mxCell>
        <mxCell id="5L1mM872IayFUB_JROpb-175" value="}" style="edgeLabel;html=1;align=center;verticalAlign=middle;resizable=0;points=[];" vertex="1" connectable="0" parent="5L1mM872IayFUB_JROpb-133">
          <mxGeometry x="-0.8807" y="-1" relative="1" as="geometry">
            <mxPoint x="8" y="2" as="offset" />
          </mxGeometry>
        </mxCell>
        <mxCell id="5L1mM872IayFUB_JROpb-147" value="" style="edgeStyle=orthogonalEdgeStyle;rounded=0;orthogonalLoop=1;jettySize=auto;html=1;" edge="1" parent="1" source="5L1mM872IayFUB_JROpb-125" target="5L1mM872IayFUB_JROpb-128">
          <mxGeometry relative="1" as="geometry" />
        </mxCell>
        <mxCell id="5L1mM872IayFUB_JROpb-148" value="1" style="edgeLabel;html=1;align=center;verticalAlign=middle;resizable=0;points=[];" vertex="1" connectable="0" parent="5L1mM872IayFUB_JROpb-147">
          <mxGeometry x="-0.789" y="1" relative="1" as="geometry">
            <mxPoint x="7" y="2" as="offset" />
          </mxGeometry>
        </mxCell>
        <mxCell id="5L1mM872IayFUB_JROpb-160" value="{" style="edgeLabel;html=1;align=center;verticalAlign=middle;resizable=0;points=[];" vertex="1" connectable="0" parent="5L1mM872IayFUB_JROpb-147">
          <mxGeometry x="-0.7981" relative="1" as="geometry">
            <mxPoint x="-9" y="2" as="offset" />
          </mxGeometry>
        </mxCell>
        <mxCell id="5L1mM872IayFUB_JROpb-125" value="for(int k = 0; k &amp;lt; temp[i]; k++)" style="shape=hexagon;perimeter=hexagonPerimeter2;whiteSpace=wrap;html=1;fixedSize=1;" vertex="1" parent="1">
          <mxGeometry x="-1580" y="1071" width="200" height="40" as="geometry" />
        </mxCell>
        <mxCell id="5L1mM872IayFUB_JROpb-130" style="edgeStyle=orthogonalEdgeStyle;rounded=0;orthogonalLoop=1;jettySize=auto;html=1;entryX=0.5;entryY=0;entryDx=0;entryDy=0;" edge="1" parent="1" source="5L1mM872IayFUB_JROpb-127" target="5L1mM872IayFUB_JROpb-128">
          <mxGeometry relative="1" as="geometry" />
        </mxCell>
        <mxCell id="5L1mM872IayFUB_JROpb-127" value="a[i] = j + min;" style="rounded=0;whiteSpace=wrap;html=1;" vertex="1" parent="1">
          <mxGeometry x="-1520" y="1131" width="80" height="30" as="geometry" />
        </mxCell>
        <mxCell id="5L1mM872IayFUB_JROpb-131" style="edgeStyle=orthogonalEdgeStyle;rounded=0;orthogonalLoop=1;jettySize=auto;html=1;entryX=0;entryY=0.5;entryDx=0;entryDy=0;" edge="1" parent="1" source="5L1mM872IayFUB_JROpb-128" target="5L1mM872IayFUB_JROpb-125">
          <mxGeometry relative="1" as="geometry">
            <Array as="points">
              <mxPoint x="-1480" y="1231" />
              <mxPoint x="-1620" y="1231" />
              <mxPoint x="-1620" y="1091" />
            </Array>
          </mxGeometry>
        </mxCell>
        <mxCell id="5L1mM872IayFUB_JROpb-159" value="}" style="edgeLabel;html=1;align=center;verticalAlign=middle;resizable=0;points=[];" vertex="1" connectable="0" parent="5L1mM872IayFUB_JROpb-131">
          <mxGeometry x="-0.9469" relative="1" as="geometry">
            <mxPoint x="7" as="offset" />
          </mxGeometry>
        </mxCell>
        <mxCell id="5L1mM872IayFUB_JROpb-128" value="i++;" style="rounded=0;whiteSpace=wrap;html=1;" vertex="1" parent="1">
          <mxGeometry x="-1520" y="1181" width="80" height="30" as="geometry" />
        </mxCell>
        <mxCell id="5L1mM872IayFUB_JROpb-135" value="Конец" style="ellipse;whiteSpace=wrap;html=1;" vertex="1" parent="1">
          <mxGeometry x="-1520" y="1311" width="80" height="40" as="geometry" />
        </mxCell>
        <mxCell id="5L1mM872IayFUB_JROpb-169" value="{" style="edgeLabel;html=1;align=center;verticalAlign=middle;resizable=0;points=[];" vertex="1" connectable="0" parent="1">
          <mxGeometry x="-1552.003870746357" y="525.877065892501" as="geometry">
            <mxPoint x="61" y="-56" as="offset" />
          </mxGeometry>
        </mxCell>
      </root>
    </mxGraphModel>
  </diagram>
</mxfile>
